<svg version="1.2" xmlns="http://www.w3.org/2000/svg" viewBox="0 0 1230 6165" width="1230" height="6165"><style>.a{fill:#d2ad48}</style><path fill-rule="evenodd" class="a" d="m331.9 73.4v11.3c0 32.8-10 53.6-32.3 64.1 26.8 10.4 37.3 34.6 37.3 68.2v25.9c0 49-25.9 75.4-75.9 75.4h-78.6v-318.1h75.4c51.8 0 74.1 24.1 74.1 73.2zm-99.5-27.7v84.1h19.5c18.7 0 30-8.2 30-33.7v-17.7c0-22.7-7.7-32.7-25.4-32.7zm0 129.5v97.7h28.6c16.8 0 25.9-7.8 25.9-31.4v-27.7c0-29.6-9.5-38.7-32.3-38.7z"/><path fill-rule="evenodd" class="a" d="m522 318.3h-50.4l-8.6-57.7h-61.4l-8.6 57.7h-45.9l50.9-318.1h73.1zm-114-100.8h48.1l-24.1-160.9z"/><path fill-rule="evenodd" class="a" d="m538.6 0.2h79.1c50 0 74.5 27.8 74.5 78.7v160.8c0 50.9-24.5 78.6-74.5 78.6h-79.1zm50 45.4v227.3h28.2c15.9 0 25.5-8.2 25.5-30.9v-165.5c0-22.7-9.6-30.9-25.5-30.9z"/><path class="a" d="m720.4 287.9l70 0.1v100.8c0 50.9-25.5 80-74.5 80-49.1 0-74.5-29.1-74.5-80v-165.4c0-50.9 25.4-80 74.5-80 49.1 0 74.5 29.1 74.5 80v30.9h-47.3v-34.1c0-22.7-10-31.4-25.9-31.4-15.9 0-25.9 8.7-25.9 31.4v171.8c0 22.7 10 30.9 25.9 30.9 15.9 0 25.9-8.2 25.9-30.9v-58.6h-22.7z"/><path class="a" d="m866 147.1v245.4c0 22.7 10 30.9 25.9 30.9 15.9 0 25.9-8.2 25.9-30.9v-245.4h47.2v242.2c0 50.9-25.4 80-74.5 80-49 0-74.5-29.1-74.5-80v-242.2z"/><path class="a" d="m1006.5 229.3l-63.2-191.8h52.3l38.1 130.8 38.2-130.8h47.7l-63.1 191.8v2470.8h-50z"/><path class="a" d="m1155.5 143.4c48.6 0 73.5 29.1 73.5 80v10h-47.2v-13.2c0-22.7-9.1-31.4-25-31.4-15.9 0-25 8.7-25 31.4 0 65.4 97.7 77.7 97.7 168.6 0 50.9-25.4 80-74.5 80-49.1 0-74.5-29.1-74.5-80v-19.5h47.3v22.7c0 22.7 10 30.9 25.9 30.9 15.9 0 25.9-8.2 25.9-30.9 0-65.5-97.7-77.7-97.7-168.6 0-50.9 24.9-80 73.6-80z"/><path  d="m-1504.4 3458.1v-50h865.4v50z"/><path class="a" d="m1003.4 2692.2h50v2236.1h-50z"/><path fill-rule="evenodd" class="a" d="m916.7 6072.6v-11.4c0-32.7 10-53.6 32.2-64-26.8-10.5-37.2-34.6-37.2-68.2v-25.9c0-49.1 25.8-75.4 75.8-75.4h78.6v318.1h-75.4c-51.8 0-74.1-24.1-74-73.2zm99.5 27.7v-84.1h-19.5c-18.7 0-30 8.2-30 33.7v17.7c0 22.7 7.6 32.7 25.4 32.7zm0-129.5v-97.7h-28.7c-16.8 0-25.9 7.7-25.9 31.4v27.7c0 29.5 9.6 38.6 32.3 38.6z"/><path fill-rule="evenodd" class="a" d="m726.5 5827.7h50.4l8.7 57.7h61.3l8.7-57.7h45.9l-50.9 318.1h-73.3zm114.2 100.9h-48.3l24.1 160.9z"/><path fill-rule="evenodd" class="a" d="m709.9 6145.8h-79.1c-50 0-74.5-27.8-74.5-78.6v-160.9c0-50.9 24.5-78.6 74.5-78.6h79.1zm-50-45.5v-227.2h-28.1c-16 0-25.5 8.2-25.5 30.9v165.4c0 22.7 9.5 30.9 25.5 30.9z"/><path class="a" d="m528.1 5858.1l-70-0.1v-100.8c0-50.9 25.5-80 74.5-80 49.1 0 74.6 29.1 74.6 80v165.4c0 50.9-25.5 79.9-74.6 79.9-49 0-74.5-29-74.5-79.9v-30.9h47.3v34c0 22.8 10 31.4 25.9 31.4 15.9 0 25.9-8.6 25.9-31.4v-171.7c0-22.8-10-30.9-25.9-30.9-15.9 0-25.9 8.1-25.9 30.9v58.6h22.7z"/><path class="a" d="m382.5 5998.9v-245.3c0-22.8-10-30.9-25.8-30.9-15.9 0-25.9 8.1-25.9 30.9l-0.1 245.4h-47.2v-242.3c0-50.9 25.5-79.9 74.5-79.9 49.1 0 74.6 29 74.6 79.9v242.3z"/><path class="a" d="m242 5916.7l63.3 191.8h-52.3l-38.2-130.7-38.2 130.7h-47.7l63.2-191.8v-1024.3h49.9z"/><path class="a" d="m93.1 6002.6c-48.7-0.1-73.7-29.1-73.7-80v-10h47.3v13.1c0 22.8 9.1 31.4 25 31.4 15.9 0 25-8.6 25-31.4 0-65.3-97.7-77.7-97.7-168.5 0-50.9 25.5-80 74.5-80 49.1 0 74.5 29.1 74.5 80v19.5h-47.2v-22.7c0-22.8-10-30.9-25.9-30.9-15.9 0-25.9 8.1-25.9 30.9 0 65.4 97.7 77.7 97.7 168.6 0 50.9-25 79.9-73.6 79.9z"/></svg>