<svg version="1.2" xmlns="http://www.w3.org/2000/svg" viewBox="0 0 751 449" width="751" height="449"><style>.a{fill:#808080}</style><path class="a" d="m99.7 198.3l42-35.7-8 43.4z"/><path fill-rule="evenodd" class="a" d="m210.9 260.4l-132.2 59.9-9.7-51.3-68.6-5.4 16.3-101.6 69.2-37 89.3 26.9-17.7 62.1zm-66.9-17.1l37.2 21.9 15.3-6.9-47.9-41.7 16.9-59.4-78.8-23.7-62.9 33.6-14.4 89.3 66.2 5.3 8.9 47.4 23.5-10.6-8.4-41.2 20.1 35.8 16.3-7.4-14.4-32 24.6 27.4 23.9-10.8z"/><path class="a" d="m97 219.3l22 7.3-22 7.4z"/><path class="a" d="m77 211.3c0 0 3.3 32 0 32-3.3 0-50.7-12.7-50.7-12.7z"/><path fill-rule="evenodd" class="a" d="m720.6 161.2l1 0.5-3.9 8-4.5 42.1-5.8-47.2-12.2-6-3.5 41.9-7.1-47.1-11.3-5.6-2.1 43.8-8.7-49.2-11-5.4c-22.2 17.2-47.2 33.1-74.8 47.5l-2.4 1.3-2.3-1.6c-48.5-35.6-82-67.1-102.4-96.5l-1.7-2.4 1.6-2.5c6.1-9.7 12.5-18.4 19.3-26.1l-82-40.5 16.8 26.4-7.5 4.7-30.2-47.3 59.8 3.4-0.5 8.8-29.7-1.6 79.6 39.3c9.9-10.3 20.5-18.7 32-25.3l2.1-1.2 2.1 1.1c23.8 12.3 41.8 24.5 54.8 37.2 21.2-11.4 39.9-18.2 57.3-20.9l2.2-0.4 1.5 1.6c18.6 17.9 31.8 38.5 39.2 61.2l0.9 2.6-2 1.9c-8.1 8-16.8 15.7-26 23.2l5.5 2.7 45.4-22-34.3 27.5 11.5 5.7 42.1-22-31.5 27.2 12.6 6.2 40.6-22.5zm-43.6-57.9c-6.9-19.6-18.4-37.5-34.4-53.4-16.5 2.9-34.5 9.8-55.1 21.2l-2.9 1.6-2.4-2.4c-12.2-12.5-29.5-24.6-52.7-36.7-19.2 11.4-35.8 28.3-50.8 51.5 19.6 27.4 51.2 56.9 96.4 90.3 24.8-13.1 47.4-27.4 67.6-42.8l-54.6-26.9 3.9-8 58.4 28.8c9.4-7.5 18.3-15.2 26.6-23.2z"/><path class="a" d="m416.3 162.6c-5.6 2.1-11.2 4-16.9 5.9 0.3 9.1 0.1 18.2-0.9 27.4-2.8-8.2-4.9-16.4-6.7-24.8-12.8 4.2-25.7 7.9-38.6 11.5 0.8 9.6 1.2 19.3 0.9 29.2-3.4-9-6-18.1-8.3-27.2q-14.4 3.9-28.7 7.4c-3.4 0.8-6.8 1.6-10.2 2.4 4.9 20.1 9.1 40.4 11.6 61.1-8.5-19.2-15.3-39-21.3-58.9q-20 4.5-40.2 8.2c10.6 27 20.4 54.4 27.7 82.8-14.8-26.2-26.8-53.4-38.1-80.9-10.4 1.7-20.8 3.3-31.3 4.6 9.6-3.6 19.4-6.9 29.1-10-11.1-28.2-21.5-56.7-29.1-86.3 15.2 26.9 27.5 54.9 39.1 83.3q19.9-6.1 40.1-11.3c-0.9-3.1-1.8-6.2-2.7-9.2-7-26.5-13.3-53.1-16.6-80.6 11.2 25.3 19.3 51.5 26.7 77.8 0.8 3.2 1.6 6.3 2.4 9.5 3.5-0.9 6.9-1.8 10.3-2.6q14.5-3.5 29-6.6-2.8-12.4-4.9-24.9c-3.2-20.7-5.7-41.6-5.1-63 7.5 20.1 11.8 40.7 15.4 61.3q1.9 12.4 3.3 24.8c12.8-2.7 25.6-5.2 38.5-7.3-1.6-8.4-2.9-16.8-3.9-25.2-2-18.5-3.2-37.1-1.3-56.1 6.3 18 9.3 36.4 11.7 54.9 0.9 8.4 1.6 16.8 1.9 25.2 5.7-0.8 11.4-1.7 17.1-2.4z"/><path class="a" d="m651.4 278.7c-11.5 1.8-23.1 3.2-34.6 4.3-5.5 9.3-11.3 18.2-17.3 27-12 16.9-24.6 33.4-39.8 48.1 8.4-19.4 19.5-37 31.2-54.1q7.2-10.1 14.8-19.9c-13.6 1.2-27.3 2-40.9 2.6q-0.2 0.5-0.4 0.9c-9 18.2-18.6 36-31.1 52.4 4.7-18.5 11.9-35.8 19.8-52.8q-18.3 0.5-36.7 0.6c-4.3 13-9.3 25.8-15.8 38.2 1-13 3.3-25.7 6.2-38.2-9.7-0.1-19.4-0.4-29-0.9-2.5 9.8-5.5 19.5-9.2 29.1-0.3-10 0.1-19.8 1-29.6-5-0.3-10-0.6-15-1.1 5.1-0.8 10.2-1.4 15.4-2.1 0.9-9.4 2.3-18.8 3.8-28.1 3.6-20 8-39.8 15.5-59.2 0.6 20.8-1.9 40.9-5.2 61q-2.3 12.6-5.2 25.1c9.9-1.1 19.9-2 29.9-2.8q1.5-6 3.1-12c5.7-19 12-37.9 21.4-55.9-1.5 20.2-6 39.6-11.3 58.8-0.8 2.8-1.7 5.6-2.6 8.4q16.7-1 33.4-1.7c1.8-0.1 3.6-0.1 5.4-0.1 8.1-16 16.8-31.6 27.8-46.1-4 16-9.9 31.1-16.5 45.8 14.1-0.2 28.2-0.2 42.4 0.1 5.9-7.1 12-14 18.8-20.5-3.1 7.2-6.7 14-10.5 20.8 10.4 0.4 20.8 0.9 31.2 1.9z"/><path class="a" d="m307.1 402.8c-8.5 0.5-17 0.8-25.5 1-0.6 4.1-1.3 8.2-2.5 12.3-1.7-4.1-2.8-8.2-3.8-12.3-6.7 0-13.3 0-19.9-0.1 1.3 8.5 2.2 17 2.4 25.7-4.2-8.5-7.6-17.1-10.6-25.9q-14.3-0.5-28.6-1.3c3.8 9.9 7.1 19.9 9.2 30.6-7.8-9.9-14.1-20.4-19.7-31.3-12.6-0.9-25.2-1.9-37.7-3.3q3.6 4.1 7 8.3c10.5 13.1 20.3 26.7 27.7 42.3-13.8-10.4-25.1-22.8-35.8-35.7q-6.4-8.1-12.3-16.6c-12.1-1.5-24.2-3.4-36.3-5.8 10.6-0.7 21.2-0.9 31.7-1-3.9-6.1-7.6-12.3-10.7-19 7.6 5.8 14.4 12.2 20.9 19 13.4 0.1 26.8 0.6 40.2 1.3q-0.6-1.2-1.1-2.4c-7-15.5-13.3-31.4-16.6-48.6 10.8 13.8 18.8 28.8 26.1 44.2 1 2.5 2.1 4.9 3.1 7.3q15 1.1 30 2.5-2.6-8.9-4.9-17.9c-4.3-18.2-7.9-36.6-8.3-55.8 8.4 17.2 13.8 35.2 18.4 53.3q2.5 10.7 4.5 21.4 9.9 1.1 19.9 2.4c-1-5.4-1.6-10.9-1.9-16.4-0.5-11.8-0.3-23.6 3.2-35.6 4.8 11.5 6.3 23.3 7.2 35.1 0.2 6 0.3 12-0.2 18 8.3 1.2 16.7 2.6 24.9 4.3z"/></svg>